<svg xmlns="http://www.w3.org/2000/svg" viewBox="0 0 100 100">
  <path
    d="M89 84h-3c0-2.6-1.7-4.8-4-5.7V21.7c2.3-.8 4-3 4-5.7h3c1.1 0 2-.9 2-2s-.9-2-2-2h-3c0-3.3-2.7-6-6-6H20c-3.3 0-6 2.7-6 6h-3c-1.1 0-2 .9-2 2s.9 2 2 2h3c0 2.6 1.7 4.8 4 5.7v56.7c-2.3.8-4 3-4 5.7h-3c-1.1 0-2 .9-2 2s.9 2 2 2h3c0 3.3 2.7 6 6 6h60c3.3 0 6-2.7 6-6h3c1.1 0 2-.9 2-2s-.9-2.1-2-2.1zM18 12c0-1.1.9-2 2-2h60c1.1 0 2 .9 2 2v4c0 1.1-.9 2-2 2H20c-1.1 0-2-.9-2-2v-4zm60 10v56H22V22h56zm4 66c0 1.1-.9 2-2 2H20c-1.1 0-2-.9-2-2v-4c0-1.1.9-2 2-2h60c1.1 0 2 .9 2 2v4z" />
  <path
    d="M30 42h40c1.1 0 2-.9 2-2s-.9-2-2-2H30c-1.1 0-2 .9-2 2s.9 2 2 2zm0 10h40c1.1 0 2-.9 2-2s-.9-2-2-2H30c-1.1 0-2 .9-2 2s.9 2 2 2zm0 10h40c1.1 0 2-.9 2-2s-.9-2-2-2H30c-1.1 0-2 .9-2 2s.9 2 2 2z" />
  <circle cx="30" cy="30" r="2" />
  <circle cx="40" cy="30" r="2" />
  <circle cx="50" cy="30" r="2" />
  <circle cx="60" cy="30" r="2" />
  <circle cx="70" cy="30" r="2" />
  <circle cx="30" cy="70" r="2" />
  <circle cx="40" cy="70" r="2" />
  <circle cx="50" cy="70" r="2" />
  <circle cx="60" cy="70" r="2" />
  <circle cx="70" cy="70" r="2" />
</svg>